<svg width="41" height="40" viewBox="0 0 41 40" fill="none" xmlns="http://www.w3.org/2000/svg">
<g clip-path="url(#clip0_200_546)">
<path opacity="0.1" d="M20.5801 40.52C31.6258 40.52 40.5801 31.5657 40.5801 20.52C40.5801 9.47433 31.6258 0.52002 20.5801 0.52002C9.53438 0.52002 0.580078 9.47433 0.580078 20.52C0.580078 31.5657 9.53438 40.52 20.5801 40.52Z" fill="#3CDBC0"/>
<path d="M34.027 11.32C33.867 11.32 33.7349 11.2678 33.627 11.16C33.5192 11.0522 33.467 10.9131 33.467 10.7461C33.467 10.5791 33.5192 10.4574 33.627 10.3565C33.7349 10.2557 33.867 10.207 34.027 10.207H38.921C39.081 10.207 39.2131 10.2591 39.321 10.3635C39.4288 10.4678 39.481 10.6035 39.481 10.7705C39.481 10.9235 39.4288 11.0522 39.321 11.16C39.2131 11.2678 39.081 11.32 38.921 11.32H34.027ZM36.4549 13.7374C36.2705 13.7374 36.1175 13.6783 35.9957 13.5565C35.874 13.4348 35.8114 13.2818 35.8114 13.0905V8.29045C35.8114 8.1061 35.874 7.95654 36.0027 7.8348C36.1314 7.71654 36.2844 7.65393 36.4688 7.65393C36.6531 7.65393 36.8131 7.71306 36.9314 7.8348C37.0462 7.95306 37.1053 8.1061 37.1053 8.29045V13.0905C37.1053 13.2818 37.0462 13.4383 36.9244 13.5565C36.8027 13.6748 36.6497 13.7374 36.4583 13.7374H36.4549Z" fill="#3CDBC0"/>
<path d="M9.79747 9.21567C10.4698 9.21567 11.0149 8.67062 11.0149 7.99828C11.0149 7.32593 10.4698 6.78088 9.79747 6.78088C9.12512 6.78088 8.58008 7.32593 8.58008 7.99828C8.58008 8.67062 9.12512 9.21567 9.79747 9.21567Z" fill="#FFD100"/>
<path d="M28.4061 15.0314C28.8409 15.2645 29.2548 15.5462 29.6513 15.8627L31.8322 17.5984C32.5766 18.1862 33.1644 18.9375 33.5679 19.7758C33.9713 20.6245 34.187 21.5497 34.187 22.5097C34.187 24.1618 33.5435 25.7514 32.3957 26.9236L31.8496 27.4801C31.0079 28.3358 30.3435 29.3514 29.8983 30.4505C29.4461 31.5566 29.2096 32.7427 29.2096 33.9601C29.2096 34.854 28.5035 35.574 27.6235 35.574H25.2931C24.42 35.574 23.707 34.8575 23.707 33.9601V32.2836H16.6148V33.9601C16.6148 34.854 15.9018 35.574 15.0287 35.574H12.6322C11.7522 35.574 11.0461 34.8575 11.0461 33.9601V32.4192C11.0461 31.0975 10.5313 29.821 9.60959 28.8853C8.68785 27.9497 7.43568 27.4245 6.13481 27.4245H4.31221C3.87743 27.4245 3.51917 27.0627 3.51917 26.6175V21.261C3.51917 20.8158 3.87743 20.454 4.31221 20.454H5.59569C6.51743 20.454 7.37308 19.9845 7.88786 19.2123C8.43395 18.3636 8.50003 17.2853 8.04786 16.381L5.97133 12.2418C12.8166 10.7497 14.9035 16.3497 14.9035 16.3497C15.5713 15.7375 16.2983 15.2192 17.0844 14.8262" stroke="#505354" stroke-width="0.695652" stroke-linecap="round" stroke-linejoin="round"/>
<path d="M33.7104 20.0888C34.1383 19.0627 35.6165 18.7496 36.4548 19.4662C36.9383 19.8766 37.6131 19.9705 38.1835 19.7027L39.4391 19.1149" stroke="#505354" stroke-width="0.695652" stroke-linecap="round" stroke-linejoin="round"/>
<path d="M11.0774 21.6923C11.8285 21.6923 12.4374 21.0725 12.4374 20.3079C12.4374 19.5434 11.8285 18.9236 11.0774 18.9236C10.3263 18.9236 9.71741 19.5434 9.71741 20.3079C9.71741 21.0725 10.3263 21.6923 11.0774 21.6923Z" fill="#505354"/>
<path d="M16.4966 18.3948C18.0235 17.0175 20.1418 16.1653 22.4827 16.1653C24.8235 16.1653 26.8722 16.9896 28.3922 18.3253" stroke="#505354" stroke-width="0.695652" stroke-linecap="round" stroke-linejoin="round"/>
<path d="M26.2252 16.9583C27.0809 16.3044 27.8044 15.6609 28.4061 15.0314C30.3505 13.014 31.1191 11.1914 31.3731 9.77223C31.707 7.88354 30.7539 5.93223 29.0322 5.13223C25.2478 3.36527 22.8444 8.86093 22.8444 8.86093C22.8444 8.86093 20.4409 3.36527 16.6496 5.13223C14.9348 5.93223 13.9852 7.88354 14.3191 9.77223C14.5557 11.1427 15.2792 12.8957 17.0809 14.8227C17.6687 15.4522 18.3644 16.1061 19.2061 16.7601" stroke="#505354" stroke-width="0.695652" stroke-linecap="round" stroke-linejoin="round"/>
</g>
<defs>
<clipPath id="clip0_200_546">
<rect width="40" height="40" fill="white" transform="translate(0.5)"/>
</clipPath>
</defs>
</svg>
