<svg width="41" height="40" viewBox="0 0 41 40" fill="none" xmlns="http://www.w3.org/2000/svg">
<g clip-path="url(#clip0_200_176)">
<path opacity="0.1" d="M20.5801 39.8701C31.6258 39.8701 40.5801 30.9158 40.5801 19.8701C40.5801 8.82442 31.6258 -0.129883 20.5801 -0.129883C9.53438 -0.129883 0.580078 8.82442 0.580078 19.8701C0.580078 30.9158 9.53438 39.8701 20.5801 39.8701Z" fill="#3CDBC0"/>
<path d="M4.80963 16.2354C4.64963 16.2354 4.51747 16.1832 4.40964 16.0754C4.30182 15.9675 4.24963 15.8284 4.24963 15.6614C4.24963 15.4945 4.30182 15.3728 4.40964 15.2719C4.51747 15.171 4.64963 15.1223 4.80963 15.1223H9.70354C9.86354 15.1223 9.99573 15.1745 10.1036 15.2788C10.2114 15.3832 10.2636 15.5188 10.2636 15.6858C10.2636 15.8388 10.2114 15.9675 10.1036 16.0754C9.99573 16.1832 9.86354 16.2354 9.70354 16.2354H4.80963ZM7.23747 18.6528C7.05312 18.6528 6.90008 18.5936 6.77834 18.4719C6.6566 18.3501 6.59398 18.1971 6.59398 18.0058V13.2058C6.59398 13.0214 6.6566 12.8719 6.7853 12.7501C6.914 12.6319 7.06703 12.5693 7.25137 12.5693C7.43572 12.5693 7.59573 12.6284 7.71399 12.7501C7.82877 12.8684 7.8879 13.0214 7.8879 13.2058V18.0058C7.8879 18.1971 7.82877 18.3536 7.70703 18.4719C7.58529 18.5901 7.43226 18.6528 7.24095 18.6528H7.23747Z" fill="#3CDBC0"/>
<path d="M34.8409 22.131C35.5133 22.131 36.0583 21.586 36.0583 20.9136C36.0583 20.2413 35.5133 19.6962 34.8409 19.6962C34.1686 19.6962 33.6235 20.2413 33.6235 20.9136C33.6235 21.586 34.1686 22.131 34.8409 22.131Z" fill="#FFD100"/>
<path d="M16.1836 8.61444H24.9141C25.3175 8.61444 25.648 8.96227 25.648 9.39357V13.0666C25.648 13.4979 25.321 13.8457 24.9141 13.8457H16.1836C15.7801 13.8457 15.4497 13.4979 15.4497 13.0666V9.39357C15.4497 8.96227 15.7767 8.61444 16.1836 8.61444Z" stroke="#505354" stroke-width="0.695652" stroke-linecap="round" stroke-linejoin="round"/>
<path d="M24.1801 13.8458V15.9884C24.1801 16.4023 24.3331 16.7988 24.6114 17.091L27.8183 20.4962C28.0931 20.7884 28.2496 21.1849 28.2496 21.5988V34.6979C28.2496 35.1118 28.0966 35.5084 27.8183 35.8005L26.6566 37.0353C26.3818 37.3275 26.0096 37.491 25.6201 37.491H15.4844C15.0949 37.491 14.7227 37.3275 14.4479 37.0353L13.2862 35.8005C13.0114 35.5084 12.8549 35.1118 12.8549 34.6979V21.5988C12.8549 21.1849 13.0079 20.7884 13.2862 20.4962L16.4931 17.091C16.7679 16.7988 16.9244 16.4023 16.9244 15.9884V13.8458" stroke="#505354" stroke-width="0.695652" stroke-linecap="round" stroke-linejoin="round"/>
<path d="M17.8949 8.61446V4.38142C17.8949 2.82663 19.081 1.56403 20.5488 1.56403C22.0131 1.56403 23.2027 2.82663 23.2027 4.38142V8.61446" stroke="#505354" stroke-width="0.695652" stroke-linecap="round" stroke-linejoin="round"/>
<path d="M22.6462 28.9554C22.8654 29.7136 22.7471 30.5832 22.2184 31.1467C21.8428 31.5467 21.321 31.7936 20.7436 31.7936C20.1662 31.7936 19.648 31.5467 19.2688 31.1467C18.7401 30.5832 18.6184 29.7171 18.841 28.9554L20.7436 23.3936L22.6462 28.9554Z" stroke="#505354" stroke-width="0.695652" stroke-linecap="round" stroke-linejoin="round"/>
<path d="M13.2793 20.4962H27.8149" stroke="#505354" stroke-width="0.695652" stroke-linecap="round" stroke-linejoin="round"/>
<path d="M12.8514 34.6945H28.2462" stroke="#505354" stroke-width="0.695652" stroke-linecap="round" stroke-linejoin="round"/>
</g>
<defs>
<clipPath id="clip0_200_176">
<rect width="40" height="40" fill="white" transform="translate(0.5)"/>
</clipPath>
</defs>
</svg>
