<svg width="41" height="40" viewBox="0 0 41 40" fill="none" xmlns="http://www.w3.org/2000/svg">
<g clip-path="url(#clip0_200_194)">
<path opacity="0.1" d="M20.74 39.98C31.7857 39.98 40.74 31.0257 40.74 19.98C40.74 8.93429 31.7857 -0.0200195 20.74 -0.0200195C9.6943 -0.0200195 0.73999 8.93429 0.73999 19.98C0.73999 31.0257 9.6943 39.98 20.74 39.98Z" fill="#3CDBC0"/>
<path d="M34.5313 9.73652C34.3713 9.73652 34.2391 9.68435 34.1313 9.57652C34.0235 9.4687 33.9713 9.32957 33.9713 9.16261C33.9713 8.99565 34.0235 8.87391 34.1313 8.77304C34.2391 8.67217 34.3713 8.62348 34.5313 8.62348H39.4252C39.5852 8.62348 39.7174 8.67565 39.8252 8.78C39.933 8.88435 39.9852 9.02 39.9852 9.18696C39.9852 9.34 39.933 9.4687 39.8252 9.57652C39.7174 9.68435 39.5852 9.73652 39.4252 9.73652H34.5313ZM36.9626 12.1539C36.7783 12.1539 36.6252 12.0948 36.5035 11.973C36.3817 11.8513 36.3191 11.6983 36.3191 11.507V6.70696C36.3191 6.52261 36.3817 6.37304 36.5104 6.2513C36.6391 6.13304 36.7922 6.07043 36.9765 6.07043C37.1609 6.07043 37.3209 6.12957 37.4391 6.2513C37.5539 6.36957 37.6131 6.52261 37.6131 6.70696V11.507C37.6131 11.6983 37.5539 11.8548 37.4322 11.973C37.3104 12.0913 37.1574 12.1539 36.9661 12.1539H36.9626Z" fill="#3CDBC0"/>
<path d="M15.1748 35.8061C15.8471 35.8061 16.3922 35.2611 16.3922 34.5887C16.3922 33.9164 15.8471 33.3713 15.1748 33.3713C14.5024 33.3713 13.9574 33.9164 13.9574 34.5887C13.9574 35.2611 14.5024 35.8061 15.1748 35.8061Z" fill="#FFD100"/>
<path d="M5.40088 15.7087V25.7783C5.40088 26.3974 5.82522 26.94 6.43391 27.0931L36.1557 34.5992C37.0252 34.8183 37.8704 34.1714 37.8704 33.2844V23.6253L5.40088 15.7087Z" stroke="#505354" stroke-width="0.695652" stroke-linecap="round" stroke-linejoin="round"/>
<path d="M5.40088 22.4878L37.8739 30.6861" stroke="#505354" stroke-width="0.695652" stroke-linecap="round" stroke-linejoin="round"/>
<path d="M5.40088 19.1801L37.8739 27.3783" stroke="#505354" stroke-width="0.695652" stroke-linecap="round" stroke-linejoin="round"/>
<path d="M5.40088 15.7087C6.9661 7.2496 17.9226 5.31568 20.893 4.94699C21.3522 4.89134 21.8044 5.06525 22.107 5.41307L37.8704 23.6287" stroke="#505354" stroke-width="0.695652" stroke-linecap="round" stroke-linejoin="round"/>
<path d="M18.754 10.2792C17.4531 9.91049 17.2409 8.84614 16.5244 8.97136C15.5435 9.1418 14.6566 11.3505 15.3175 13.1001C15.8079 14.394 16.9696 14.9714 17.2688 15.114C17.3592 15.1557 19.3662 16.074 21.0496 15.0201C23.074 13.7505 23.2444 10.5018 22.3088 9.86527C21.5609 9.35397 20.4548 10.7627 18.7505 10.2827L18.754 10.2792Z" stroke="#505354" stroke-width="0.695652" stroke-linecap="round" stroke-linejoin="round"/>
<path d="M18.7539 10.2792C18.7539 10.2792 18.9973 5.30524 15.0878 2.1748" stroke="#505354" stroke-width="0.695652" stroke-linecap="round" stroke-linejoin="round"/>
</g>
<defs>
<clipPath id="clip0_200_194">
<rect width="40" height="40" fill="white" transform="translate(0.5)"/>
</clipPath>
</defs>
</svg>
