<svg width="41" height="40" viewBox="0 0 41 40" fill="none" xmlns="http://www.w3.org/2000/svg">
<g clip-path="url(#clip0_200_68)">
<path opacity="0.1" d="M19.4327 39.6259C29.4854 39.6259 37.6347 31.4766 37.6347 21.424C37.6347 11.3713 29.4854 3.22198 19.4327 3.22198C9.38007 3.22198 1.23077 11.3713 1.23077 21.424C1.23077 31.4766 9.38007 39.6259 19.4327 39.6259Z" fill="#3CDBC0"/>
<path d="M18.0558 4.18746C17.9102 4.18746 17.7899 4.13998 17.6918 4.04184C17.5936 3.94371 17.5461 3.81709 17.5461 3.66514C17.5461 3.5132 17.5936 3.4024 17.6918 3.3106C17.7899 3.2188 17.9102 3.17448 18.0558 3.17448H22.5097C22.6554 3.17448 22.7756 3.22196 22.8738 3.31693C22.9719 3.4119 23.0194 3.53535 23.0194 3.6873C23.0194 3.82659 22.9719 3.94371 22.8738 4.04184C22.7756 4.13998 22.6554 4.18746 22.5097 4.18746H18.0558ZM20.2685 6.38752C20.1007 6.38752 19.9615 6.33371 19.8507 6.22291C19.7399 6.11212 19.6829 5.97283 19.6829 5.79873V1.43026C19.6829 1.26248 19.7399 1.12636 19.857 1.01557C19.971 0.90794 20.1102 0.854126 20.278 0.854126C20.4458 0.854126 20.5914 0.90794 20.699 1.01874C20.8035 1.12636 20.8573 1.26565 20.8573 1.43342V5.80189C20.8573 5.976 20.8035 6.11845 20.6927 6.22608C20.5819 6.33371 20.4426 6.39069 20.2685 6.39069V6.38752Z" fill="#3CDBC0"/>
<path d="M23.548 34.561C24.1599 34.561 24.656 34.0649 24.656 33.453C24.656 32.8411 24.1599 32.3451 23.548 32.3451C22.9361 32.3451 22.4401 32.8411 22.4401 33.453C22.4401 34.0649 22.9361 34.561 23.548 34.561Z" fill="#FFD100"/>
<path d="M20.68 26.4508L20.202 26.4033L20.164 26.397L15.2257 25.9159L13.6525 25.7639L8.13489 25.2226" stroke="#505354" stroke-width="0.316556" stroke-miterlimit="10"/>
<path d="M8.2077 22.0191L8.62239 21.9811L8.30583 22.0127L8.2077 22.0191Z" fill="#E08A7B" stroke="#505354" stroke-width="0.316556" stroke-miterlimit="10"/>
<path d="M9.32197 21.9083L9.13837 21.9273L9.17635 21.9209L9.32197 21.9083Z" fill="#E08A7B" stroke="#505354" stroke-width="0.316556" stroke-miterlimit="10"/>
<path d="M20.6799 20.8066L20.1703 20.851" stroke="#505354" stroke-width="0.316556" stroke-miterlimit="10"/>
<path d="M15.2257 25.9158C14.2602 28.9136 11.4556 31.0789 8.13488 31.0789C4.02282 31.0789 0.679993 27.7455 0.679993 23.624C0.679993 19.5024 4.01966 16.1691 8.13488 16.1691C9.71133 16.1691 11.1802 16.6566 12.3799 17.5018C13.7063 18.4198 14.7224 19.7588 15.2257 21.3321" stroke="#505354" stroke-width="0.633112" stroke-linecap="round" stroke-linejoin="round"/>
<path d="M34.8205 23.624C34.8205 24.5072 34.1083 25.2226 33.2219 25.2226C32.3355 25.2226 31.6233 24.5104 31.6233 23.624C31.6233 23.0225 31.9588 22.5002 32.4495 22.2248C32.6806 22.0982 32.9433 22.0254 33.2219 22.0254C34.1051 22.0254 34.8205 22.744 34.8205 23.624Z" stroke="#505354" stroke-width="0.633112" stroke-linecap="round" stroke-linejoin="round"/>
<path d="M33.2252 16.1691C31.9178 16.1691 30.6895 16.5046 29.6259 17.0934C27.3277 18.3691 25.7703 20.8161 25.7703 23.624C25.7703 27.7455 29.1099 31.0789 33.2252 31.0789C37.3404 31.0789 40.68 27.7455 40.68 23.624C40.68 19.5024 37.3467 16.1691 33.2252 16.1691Z" stroke="#505354" stroke-width="0.633112" stroke-linecap="round" stroke-linejoin="round"/>
<path d="M9.73347 23.624C9.73347 24.5072 9.02122 25.2226 8.13486 25.2226C7.24851 25.2226 6.53625 24.5104 6.53625 23.624C6.53625 22.7376 7.25484 22.0254 8.13486 22.0254C8.47041 22.0254 8.78697 22.1299 9.04654 22.3103C9.46123 22.6015 9.73347 23.0827 9.73347 23.624Z" stroke="#505354" stroke-width="0.633112" stroke-linecap="round" stroke-linejoin="round"/>
<path d="M20.1641 26.397L20.2052 26.4034C20.2052 26.4034 20.2179 26.4034 20.2242 26.4097C20.3698 26.435 20.5218 26.4508 20.68 26.4508C21.5506 26.4508 22.3388 26.0551 22.858 25.4284C23.089 25.1498 23.2663 24.8206 23.3803 24.4629C23.4056 24.3774 23.4278 24.2919 23.4467 24.2001C23.4657 24.121 23.4784 24.0355 23.4879 23.95C23.5006 23.8456 23.5069 23.738 23.5069 23.6272C23.5069 22.7503 23.1049 21.9684 22.4781 21.4556C22.3989 21.3891 22.3135 21.329 22.228 21.272H22.2217C21.7785 20.9808 21.2499 20.8098 20.6832 20.8098C20.5123 20.8098 20.3413 20.8225 20.1736 20.8573" stroke="#505354" stroke-width="0.633112" stroke-linecap="round" stroke-linejoin="round"/>
<path d="M14.6971 10.3666C13.3833 10.3666 12.1298 9.84433 11.2054 8.91998" stroke="#505354" stroke-width="0.633112" stroke-linecap="round" stroke-linejoin="round"/>
<path d="M18.6984 20.9966L15.4822 13.0352L14.4059 10.3666H17.9735" stroke="#505354" stroke-width="0.633112" stroke-linecap="round" stroke-linejoin="round"/>
<path d="M20.68 26.4635V26.4508L8.13489 25.2226" stroke="#505354" stroke-width="0.633112" stroke-linecap="round" stroke-linejoin="round"/>
<path d="M8.30585 22.0127L12.3799 17.505L15.422 12.8832H27.3087L32.4527 22.2248" stroke="#505354" stroke-width="0.633112" stroke-linecap="round" stroke-linejoin="round"/>
<path d="M30.9111 12.2913C31.8449 12.2913 32.6015 11.5347 32.6015 10.6009C32.6015 9.66703 31.8449 8.91046 30.9111 8.91046H24.8933L27.3087 12.8864L22.4749 21.4524" stroke="#505354" stroke-width="0.633112" stroke-linecap="round" stroke-linejoin="round"/>
<path d="M8.13489 22.0254L20.1703 20.851" stroke="#505354" stroke-width="0.633112" stroke-linecap="round" stroke-linejoin="round"/>
</g>
<defs>
<clipPath id="clip0_200_68">
<rect width="40" height="40" fill="white" transform="translate(0.5)"/>
</clipPath>
</defs>
</svg>
