<svg width="41" height="40" viewBox="0 0 41 40" fill="none" xmlns="http://www.w3.org/2000/svg">
<g clip-path="url(#clip0_200_560)">
<path opacity="0.1" d="M19.3789 33.6659C27.5299 33.6659 34.1376 27.0582 34.1376 18.9072C34.1376 10.7561 27.5299 4.14844 19.3789 4.14844C11.2279 4.14844 4.62018 10.7561 4.62018 18.9072C4.62018 27.0582 11.2279 33.6659 19.3789 33.6659Z" fill="#3CDBC0"/>
<path d="M35.9754 13.4015C35.8573 13.4015 35.7598 13.363 35.6802 13.2834C35.6006 13.2039 35.5621 13.1012 35.5621 12.978C35.5621 12.8548 35.6006 12.765 35.6802 12.6905C35.7598 12.6161 35.8573 12.5801 35.9754 12.5801H39.5868C39.7048 12.5801 39.8024 12.6186 39.882 12.6957C39.9615 12.7727 40 12.8728 40 12.996C40 13.1089 39.9615 13.2039 39.882 13.2834C39.8024 13.363 39.7048 13.4015 39.5868 13.4015H35.9754ZM37.767 15.1854C37.6309 15.1854 37.518 15.1417 37.4282 15.0519C37.3383 14.9621 37.2921 14.8491 37.2921 14.708V11.1659C37.2921 11.0298 37.3383 10.9195 37.4333 10.8296C37.5283 10.7424 37.6412 10.6962 37.7772 10.6962C37.9133 10.6962 38.0313 10.7398 38.1186 10.8296C38.2033 10.9169 38.2469 11.0298 38.2469 11.1659V14.708C38.2469 14.8491 38.2033 14.9646 38.1135 15.0519C38.0236 15.1392 37.9107 15.1854 37.7695 15.1854H37.767Z" fill="#3CDBC0"/>
<path d="M0.898418 22.3723C1.39457 22.3723 1.79677 21.9701 1.79677 21.4739C1.79677 20.9778 1.39457 20.5756 0.898418 20.5756C0.402269 20.5756 6.10352e-05 20.9778 6.10352e-05 21.4739C6.10352e-05 21.9701 0.402269 22.3723 0.898418 22.3723Z" fill="#FFD100"/>
<path d="M19.4559 35.4215C19.1685 35.2727 15.7932 33.4683 19.4765 29.7619L11.4631 27.4159" stroke="#505354" stroke-width="0.513347" stroke-linecap="round" stroke-linejoin="round"/>
<path d="M8.96825 26.6894L2.73878 24.8645C1.93283 25.0082 -0.621075 27.9805 2.64124 30.2957L3.32143 30.5036" stroke="#505354" stroke-width="0.513347" stroke-linecap="round" stroke-linejoin="round"/>
<path d="M19.4765 35.4292L19.4559 35.4215L7.3692 31.7357" stroke="#505354" stroke-width="0.513347" stroke-linecap="round" stroke-linejoin="round"/>
<path d="M19.4816 29.7645L37.6874 21.4406" stroke="#505354" stroke-width="0.513347" stroke-linecap="round" stroke-linejoin="round"/>
<path d="M27.4205 18.0858L37.6848 21.4354C34.8999 24.8363 37.6848 27.1028 37.6848 27.1028L19.479 35.4292" stroke="#505354" stroke-width="0.513347" stroke-linecap="round" stroke-linejoin="round"/>
<path d="M13.093 20.0544L11.0525 20.9887" stroke="#505354" stroke-width="0.513347" stroke-linecap="round" stroke-linejoin="round"/>
<path d="M9.31219 21.787L2.73877 24.8645" stroke="#505354" stroke-width="0.513347" stroke-linecap="round" stroke-linejoin="round"/>
<path d="M18.1161 17.7521H18.1084" stroke="#505354" stroke-width="0.513347" stroke-linecap="round" stroke-linejoin="round"/>
<path d="M3.32141 28.0679L7.36659 28.7609V35.4318L5.344 32.5468L3.32141 34.3949V28.0679Z" stroke="#505354" stroke-width="0.513347" stroke-linecap="round" stroke-linejoin="round"/>
<path d="M20.1618 18.6299L7.27423 13.1397L20.1618 7.22852L33.0494 13.1397L20.1618 18.6299Z" stroke="#505354" stroke-width="0.513347" stroke-linecap="round" stroke-linejoin="round"/>
<path d="M13.6654 15.863L12.8338 21.9153C12.7927 22.2156 12.8903 22.5159 13.1007 22.729C14.456 24.1073 19.8898 28.6966 27.4205 22.6982C27.6721 22.498 27.803 22.1746 27.7722 21.8511L27.187 15.6371" stroke="#505354" stroke-width="0.513347" stroke-linecap="round" stroke-linejoin="round"/>
<path d="M20.167 13.8507C20.9523 13.8507 21.5889 13.4807 21.5889 13.0242C21.5889 12.5678 20.9523 12.1978 20.167 12.1978C19.3816 12.1978 18.745 12.5678 18.745 13.0242C18.745 13.4807 19.3816 13.8507 20.167 13.8507Z" stroke="#505354" stroke-width="0.513347" stroke-miterlimit="10"/>
<path d="M18.7449 13.0242L10.1694 14.3743V20.3933" stroke="#505354" stroke-width="0.513347" stroke-linecap="round" stroke-linejoin="round"/>
<path d="M10.1695 22.3389C10.6982 22.3389 11.1269 21.9034 11.1269 21.3661C11.1269 20.8288 10.6982 20.3933 10.1695 20.3933C9.64073 20.3933 9.2121 20.8288 9.2121 21.3661C9.2121 21.9034 9.64073 22.3389 10.1695 22.3389Z" stroke="#505354" stroke-width="0.513347" stroke-linecap="round" stroke-linejoin="round"/>
<path d="M10.7111 22.1643L11.5401 26.8358C11.6454 27.4287 11.1962 27.9703 10.6058 27.9703H9.87687C9.29679 27.9703 8.85275 27.4466 8.93745 26.864L9.62533 22.1643" stroke="#505354" stroke-width="0.513347" stroke-linecap="round" stroke-linejoin="round"/>
</g>
<defs>
<clipPath id="clip0_200_560">
<rect width="40" height="40" fill="white" transform="translate(0.5)"/>
</clipPath>
</defs>
</svg>
