<svg width="41" height="40" viewBox="0 0 41 40" fill="none" xmlns="http://www.w3.org/2000/svg">
<g clip-path="url(#clip0_200_27)">
<path opacity="0.1" d="M20.0801 40.5C31.1258 40.5 40.0801 31.5457 40.0801 20.5C40.0801 9.45431 31.1258 0.5 20.0801 0.5C9.03438 0.5 0.0800781 9.45431 0.0800781 20.5C0.0800781 31.5457 9.03438 40.5 20.0801 40.5Z" fill="#3CDBC0"/>
<path d="M31.0922 10.9522C30.9322 10.9522 30.8 10.9 30.6922 10.7922C30.5844 10.6844 30.5322 10.5453 30.5322 10.3783C30.5322 10.2114 30.5844 10.0896 30.6922 9.98874C30.8 9.88787 30.9322 9.83918 31.0922 9.83918H35.9861C36.1461 9.83918 36.2783 9.89135 36.3861 9.9957C36.494 10.1 36.5461 10.2357 36.5461 10.4027C36.5461 10.5557 36.494 10.6844 36.3861 10.7922C36.2783 10.9 36.1461 10.9522 35.9861 10.9522H31.0922ZM33.5201 13.3696C33.3357 13.3696 33.1827 13.3105 33.0609 13.1887C32.9392 13.067 32.8766 12.914 32.8766 12.7227V7.92266C32.8766 7.73831 32.9392 7.58874 33.0679 7.467C33.1966 7.34874 33.3496 7.28613 33.534 7.28613C33.7183 7.28613 33.8783 7.34526 33.9966 7.467C34.1114 7.58526 34.1705 7.73831 34.1705 7.92266V12.7227C34.1705 12.914 34.1114 13.0705 33.9896 13.1887C33.8679 13.307 33.7148 13.3696 33.5235 13.3696H33.5201Z" fill="#3CDBC0"/>
<path d="M1.99315 19.2826C2.66549 19.2826 3.21054 18.7375 3.21054 18.0652C3.21054 17.3928 2.66549 16.8478 1.99315 16.8478C1.3208 16.8478 0.775757 17.3928 0.775757 18.0652C0.775757 18.7375 1.3208 19.2826 1.99315 19.2826Z" fill="#FFD100"/>
<path d="M19.6836 35.2826L19.1236 36.8061H10.8836L8.32705 29.8078C7.83662 28.4756 7.59314 27.0669 7.59314 25.6513C7.59314 23.4982 8.16705 21.38 9.25575 19.5191L11.9584 14.9243H18.0523L19.7462 17.8043" stroke="#505354" stroke-width="0.695652" stroke-linecap="round" stroke-linejoin="round"/>
<path d="M18.0522 14.9209V11.9156H11.9548V14.9209" stroke="#505354" stroke-width="0.695652" stroke-linecap="round" stroke-linejoin="round"/>
<path d="M11.9549 11.9156C11.9549 10.8582 11.8819 9.95388 11.7949 9.24084C11.6801 8.32954 11.381 7.46693 11.054 6.6078C10.7549 5.82867 10.6853 4.93475 10.9184 4.01997C11.3114 2.48606 12.5914 1.2791 14.1462 0.973014C16.8488 0.437361 19.2245 2.49649 19.2245 5.11562C19.2245 5.67214 19.1166 6.20432 18.9219 6.69127C18.6366 7.40432 18.3758 8.1278 18.2645 8.88953C18.1532 9.65127 18.0523 10.6774 18.0523 11.9156" stroke="#505354" stroke-width="0.695652" stroke-linecap="round" stroke-linejoin="round"/>
<path d="M25.1827 23.213C26.0952 23.213 26.8349 22.4733 26.8349 21.5609C26.8349 20.6484 26.0952 19.9087 25.1827 19.9087C24.2702 19.9087 23.5305 20.6484 23.5305 21.5609C23.5305 22.4733 24.2702 23.213 25.1827 23.213Z" stroke="#505354" stroke-width="0.695652" stroke-miterlimit="10"/>
<path d="M26.1566 28.9347C27.069 28.9347 27.8087 28.195 27.8087 27.2825C27.8087 26.3701 27.069 25.6304 26.1566 25.6304C25.2441 25.6304 24.5044 26.3701 24.5044 27.2825C24.5044 28.195 25.2441 28.9347 26.1566 28.9347Z" stroke="#505354" stroke-width="0.695652" stroke-miterlimit="10"/>
<path d="M20.4453 26.5174C21.3577 26.5174 22.0974 25.7777 22.0974 24.8652C22.0974 23.9527 21.3577 23.213 20.4453 23.213C19.5328 23.213 18.7931 23.9527 18.7931 24.8652C18.7931 25.7777 19.5328 26.5174 20.4453 26.5174Z" stroke="#505354" stroke-width="0.695652" stroke-miterlimit="10"/>
<path d="M25.0609 36.806C30.7202 36.806 35.3079 32.2183 35.3079 26.5591C35.3079 20.8999 30.7202 16.3121 25.0609 16.3121C19.4017 16.3121 14.814 20.8999 14.814 26.5591C14.814 32.2183 19.4017 36.806 25.0609 36.806Z" stroke="#505354" stroke-width="0.695652" stroke-miterlimit="10"/>
</g>
<defs>
<clipPath id="clip0_200_27">
<rect width="40" height="40" fill="white" transform="translate(0.5)"/>
</clipPath>
</defs>
</svg>
