<svg width="41" height="40" viewBox="0 0 41 40" fill="none" xmlns="http://www.w3.org/2000/svg">
<g clip-path="url(#clip0_200_237)">
<path opacity="0.1" d="M18.8105 39.8701C29.8562 39.8701 38.8105 30.9158 38.8105 19.8701C38.8105 8.82442 29.8562 -0.129883 18.8105 -0.129883C7.76479 -0.129883 -1.18951 8.82442 -1.18951 19.8701C-1.18951 30.9158 7.76479 39.8701 18.8105 39.8701Z" fill="#3CDBC0"/>
<path d="M35.7358 17.9744C35.5758 17.9744 35.4436 17.9223 35.3358 17.8144C35.228 17.7066 35.1758 17.5675 35.1758 17.4005C35.1758 17.2336 35.228 17.1118 35.3358 17.011C35.4436 16.9101 35.5758 16.8614 35.7358 16.8614H40.6297C40.7897 16.8614 40.9219 16.9136 41.0297 17.0179C41.1375 17.1223 41.1897 17.2579 41.1897 17.4249C41.1897 17.5779 41.1375 17.7066 41.0297 17.8144C40.9219 17.9223 40.7897 17.9744 40.6297 17.9744H35.7358ZM38.1636 20.3918C37.9793 20.3918 37.8262 20.3327 37.7045 20.211C37.5827 20.0892 37.5201 19.9362 37.5201 19.7449V14.9449C37.5201 14.7605 37.5828 14.611 37.7114 14.4892C37.8401 14.371 37.9932 14.3083 38.1775 14.3083C38.3619 14.3083 38.5219 14.3675 38.6401 14.4892C38.7549 14.6075 38.814 14.7605 38.814 14.9449V19.7449C38.814 19.9362 38.7549 20.0927 38.6332 20.211C38.5114 20.3292 38.3584 20.3918 38.1671 20.3918H38.1636Z" fill="#3CDBC0"/>
<path d="M0.0278771 20.3918C0.700224 20.3918 1.24527 19.8468 1.24527 19.1744C1.24527 18.5021 0.700224 17.957 0.0278771 17.957C-0.64447 17.957 -1.18951 18.5021 -1.18951 19.1744C-1.18951 19.8468 -0.64447 20.3918 0.0278771 20.3918Z" fill="#FFD100"/>
<path d="M27.8679 36.1763L36.0975 34.0476L31.3392 32.7954L27.8679 36.1763Z" stroke="#505354" stroke-width="0.695652" stroke-linecap="round" stroke-linejoin="round"/>
<path d="M31.3392 32.7954L28.7653 23.5293" stroke="#505354" stroke-width="0.695652" stroke-linecap="round" stroke-linejoin="round"/>
<path d="M20.6992 8.38843L27.9131 6.5206C28.1949 6.44756 28.4836 6.60756 28.5566 6.87886L31.4923 17.4597C32.2575 20.2215 31.0366 22.938 28.7653 23.5258C26.494 24.1136 24.0279 22.3502 23.2627 19.5884L20.327 9.00756C20.2505 8.73625 20.4175 8.45799 20.6992 8.38495V8.38843Z" stroke="#505354" stroke-width="0.695652" stroke-linecap="round" stroke-linejoin="round"/>
<path d="M20.7931 10.6945H29.614" stroke="#505354" stroke-width="0.695652" stroke-linecap="round" stroke-linejoin="round"/>
<path d="M9.69051 36.1519L1.46094 34.0232L6.2192 32.771L9.69051 36.1519Z" stroke="#505354" stroke-width="0.695652" stroke-linecap="round" stroke-linejoin="round"/>
<path d="M6.21918 32.771L8.78962 23.5015" stroke="#505354" stroke-width="0.695652" stroke-linecap="round" stroke-linejoin="round"/>
<path d="M16.8557 8.36401L9.64181 6.49619C9.36007 6.42314 9.07136 6.58314 8.99832 6.85445L6.06266 17.4353C5.29745 20.1971 6.51832 22.9136 8.78963 23.5014C11.0609 24.0892 13.527 22.3258 14.2922 19.564L17.2279 8.98314C17.3044 8.71184 17.1375 8.43358 16.8557 8.36053V8.36401Z" stroke="#505354" stroke-width="0.695652" stroke-linecap="round" stroke-linejoin="round"/>
<path d="M16.7618 10.6702H7.94092" stroke="#505354" stroke-width="0.695652" stroke-linecap="round" stroke-linejoin="round"/>
<path d="M18.814 4.32579V0.256226" stroke="#505354" stroke-width="0.695652" stroke-linecap="round" stroke-linejoin="round"/>
<path d="M16.0453 4.92058L14.9949 0.854492" stroke="#505354" stroke-width="0.695652" stroke-linecap="round" stroke-linejoin="round"/>
<path d="M21.5826 4.92058L22.6366 0.854492" stroke="#505354" stroke-width="0.695652" stroke-linecap="round" stroke-linejoin="round"/>
</g>
<defs>
<clipPath id="clip0_200_237">
<rect width="40" height="40" fill="white" transform="translate(0.5)"/>
</clipPath>
</defs>
</svg>
