<svg width="41" height="40" viewBox="0 0 41 40" fill="none" xmlns="http://www.w3.org/2000/svg">
<g clip-path="url(#clip0_200_161)">
<path opacity="0.1" d="M22.1113 37.9688C32.0352 37.9688 40.0801 29.9239 40.0801 20C40.0801 10.0761 32.0352 2.03125 22.1113 2.03125C12.1875 2.03125 4.14258 10.0761 4.14258 20C4.14258 29.9239 12.1875 37.9688 22.1113 37.9688Z" fill="#3CDBC0"/>
<path d="M31.0676 18.6094C30.9238 18.6094 30.8051 18.5625 30.7082 18.4656C30.6113 18.3687 30.5645 18.2437 30.5645 18.0937C30.5645 17.9437 30.6113 17.8344 30.7082 17.7437C30.8051 17.6531 30.9238 17.6094 31.0676 17.6094H35.4645C35.6082 17.6094 35.727 17.6562 35.8238 17.75C35.9207 17.8437 35.9676 17.9656 35.9676 18.1156C35.9676 18.2531 35.9207 18.3687 35.8238 18.4656C35.727 18.5625 35.6082 18.6094 35.4645 18.6094H31.0676ZM33.2488 20.7812C33.0832 20.7812 32.9457 20.7281 32.8363 20.6187C32.727 20.5094 32.6707 20.3719 32.6707 20.2V15.8875C32.6707 15.7219 32.727 15.5875 32.8426 15.4781C32.9582 15.3719 33.0957 15.3156 33.2613 15.3156C33.427 15.3156 33.5707 15.3687 33.677 15.4781C33.7801 15.5844 33.8332 15.7219 33.8332 15.8875V20.2C33.8332 20.3719 33.7801 20.5125 33.6707 20.6187C33.5613 20.725 33.4238 20.7812 33.252 20.7812H33.2488Z" fill="#3CDBC0"/>
<path d="M1.17383 30.7812C1.77789 30.7812 2.26758 30.2916 2.26758 29.6875C2.26758 29.0834 1.77789 28.5938 1.17383 28.5938C0.569767 28.5938 0.0800781 29.0834 0.0800781 29.6875C0.0800781 30.2916 0.569767 30.7812 1.17383 30.7812Z" fill="#FFD100"/>
<path d="M8.50503 4.9906V13.9218C8.50503 15.3656 8.31127 16.8 7.9269 18.1906L7.35816 20.2468C6.97378 21.6375 6.78003 23.0719 6.78003 24.5156V37.2625H14.0144V30.3218L21.355 36.0844C22.3269 36.8469 23.5269 37.2625 24.7613 37.2625H33.3894C33.9457 37.2625 34.4956 37.1781 35.0269 37.0125L38.4925 35.9312C38.8238 35.8281 39.0488 35.5187 39.0488 35.1687V32.2219C39.0488 30.5375 37.7613 29.1062 36.0925 29.0187C34.3988 28.9312 32.2738 28.4687 30.5519 26.9656C28.605 25.2687 26.6613 22.9437 25.3363 21.2406C24.2457 19.8406 23.6613 18.1156 23.6613 16.3344V4.9906H8.50191H8.50503Z" stroke="#505354" stroke-width="0.625" stroke-linecap="round" stroke-linejoin="round"/>
<path d="M6.7832 26.8438H13.0269C14.1676 26.8438 15.2801 27.2 16.2145 27.8594L22.5707 32.3625C23.5051 33.025 24.6176 33.3781 25.7582 33.3781H33.4863C33.8863 33.3781 34.2863 33.3344 34.6801 33.2469L39.0582 32.275" stroke="#505354" stroke-width="0.625" stroke-linecap="round" stroke-linejoin="round"/>
</g>
<defs>
<clipPath id="clip0_200_161">
<rect width="40" height="40" fill="white" transform="translate(0.5)"/>
</clipPath>
</defs>
</svg>
