<svg width="41" height="40" viewBox="0 0 41 40" fill="none" xmlns="http://www.w3.org/2000/svg">
<g clip-path="url(#clip0_200_477)">
<path opacity="0.1" d="M19.2821 40.24C28.7278 40.24 36.385 32.5828 36.385 23.1371C36.385 13.6914 28.7278 6.03418 19.2821 6.03418C9.83643 6.03418 2.1792 13.6914 2.1792 23.1371C2.1792 32.5828 9.83643 40.24 19.2821 40.24Z" fill="#3CDBC0"/>
<path d="M20.9656 3.37205C20.8288 3.37205 20.7157 3.32744 20.6235 3.23523C20.5313 3.14302 20.4867 3.02405 20.4867 2.88128C20.4867 2.7385 20.5313 2.6344 20.6235 2.54814C20.7157 2.46188 20.8288 2.42024 20.9656 2.42024H25.1506C25.2874 2.42024 25.4004 2.46486 25.4926 2.55409C25.5848 2.64332 25.6295 2.75932 25.6295 2.9021C25.6295 3.03297 25.5848 3.14302 25.4926 3.23523C25.4004 3.32744 25.2874 3.37205 25.1506 3.37205H20.9656ZM23.0417 5.43928C22.8841 5.43928 22.7532 5.38871 22.6491 5.28461C22.545 5.1805 22.4915 5.04963 22.4915 4.88603V0.781335C22.4915 0.62369 22.545 0.49579 22.655 0.391686C22.7621 0.290555 22.896 0.23999 23.0506 0.23999C23.2053 0.23999 23.3451 0.290555 23.4462 0.39466C23.5444 0.49579 23.595 0.626665 23.595 0.784309V4.88901C23.595 5.0526 23.5444 5.18645 23.4403 5.28758C23.3362 5.38871 23.2053 5.44225 23.0417 5.44225V5.43928Z" fill="#3CDBC0"/>
<path d="M9.76395 36.9681C10.3389 36.9681 10.805 36.502 10.805 35.927C10.805 35.3521 10.3389 34.886 9.76395 34.886C9.18899 34.886 8.7229 35.3521 8.7229 35.927C8.7229 36.502 9.18899 36.9681 9.76395 36.9681Z" fill="#FFD100"/>
<path d="M20.454 37.7295C7.4707 30.1686 3.65452 22.8366 2.79491 17.8812C2.10484 13.9014 4.07986 9.7908 7.63429 8.1043C15.4719 4.38033 20.454 13.6665 20.454 13.6665C20.454 13.6665 25.4362 4.3833 33.2738 8.1043C36.8282 9.7908 38.8032 13.9014 38.1132 17.8812C37.2536 22.8336 33.4374 30.1686 20.454 37.7295Z" stroke="#505354" stroke-width="0.594884" stroke-linecap="round" stroke-linejoin="round"/>
<path d="M18.4136 23.4702C19.6302 22.5541 21.278 22.5541 22.4915 23.4702C25.1031 25.4392 25.9746 27.2715 26.2006 28.5891C26.4267 29.886 25.7813 31.2245 24.6242 31.7718C23.1876 32.4529 22.0484 31.1918 21.3226 30.7307C20.7932 30.3916 20.1061 30.3916 19.5766 30.7307C18.8538 31.1918 17.7117 32.4559 16.275 31.7718C15.118 31.2215 14.4755 29.886 14.6986 28.5891C14.9276 27.2715 15.7961 25.4392 18.4077 23.4702H18.4136Z" stroke="#505354" stroke-width="0.594884" stroke-linecap="round" stroke-linejoin="round"/>
<path d="M18.9133 19.7179C19.719 18.9973 19.5696 17.5158 18.5795 16.4089C17.5895 15.302 16.1338 14.9889 15.3282 15.7095C14.5225 16.4301 14.6719 17.9116 15.662 19.0185C16.652 20.1253 18.1077 20.4385 18.9133 19.7179Z" stroke="#505354" stroke-width="0.594884" stroke-linecap="round" stroke-linejoin="round"/>
<path d="M14.4915 23.835C15.1319 23.2623 15.0136 22.0853 14.2272 21.2061C13.4409 20.327 12.2844 20.0786 11.644 20.6514C11.0036 21.2242 11.1219 22.4012 11.9082 23.2803C12.6946 24.1594 13.8511 24.4078 14.4915 23.835Z" stroke="#505354" stroke-width="0.594884" stroke-linecap="round" stroke-linejoin="round"/>
<path d="M28.9975 23.284C29.7838 22.4048 29.9021 21.2278 29.2618 20.6551C28.6214 20.0823 27.4648 20.3307 26.6785 21.2098C25.8922 22.089 25.7739 23.266 26.4143 23.8387C27.0546 24.4115 28.2112 24.1631 28.9975 23.284Z" stroke="#505354" stroke-width="0.594884" stroke-linecap="round" stroke-linejoin="round"/>
<path d="M25.3947 19.0204C26.3847 17.9135 26.5342 16.4321 25.7285 15.7115C24.9228 14.9908 23.4672 15.304 22.4771 16.4109C21.4871 17.5177 21.3377 18.9992 22.1434 19.7198C22.949 20.4404 24.4047 20.1273 25.3947 19.0204Z" stroke="#505354" stroke-width="0.594884" stroke-linecap="round" stroke-linejoin="round"/>
</g>
<defs>
<clipPath id="clip0_200_477">
<rect width="40" height="40" fill="white" transform="translate(0.5)"/>
</clipPath>
</defs>
</svg>
