<svg width="41" height="40" viewBox="0 0 41 40" fill="none" xmlns="http://www.w3.org/2000/svg">
<g clip-path="url(#clip0_200_92)">
<path opacity="0.1" d="M19.3016 38.0987C29.0101 38.0987 36.8803 30.2285 36.8803 20.52C36.8803 10.8115 29.0101 2.94128 19.3016 2.94128C9.59316 2.94128 1.7229 10.8115 1.7229 20.52C1.7229 30.2285 9.59316 38.0987 19.3016 38.0987Z" fill="#3CDBC0"/>
<path d="M35.7063 22.8282C35.5657 22.8282 35.4495 22.7823 35.3547 22.6875C35.26 22.5927 35.2141 22.4705 35.2141 22.3237C35.2141 22.177 35.26 22.07 35.3547 21.9813C35.4495 21.8927 35.5657 21.8499 35.7063 21.8499H40.0078C40.1484 21.8499 40.2646 21.8957 40.3593 21.9874C40.4541 22.0791 40.5 22.1984 40.5 22.3451C40.5 22.4796 40.4541 22.5927 40.3593 22.6875C40.2646 22.7823 40.1484 22.8282 40.0078 22.8282H35.7063ZM37.8402 24.9529C37.6782 24.9529 37.5437 24.9009 37.4367 24.7939C37.3297 24.6869 37.2746 24.5524 37.2746 24.3842V20.1654C37.2746 20.0033 37.3297 19.8719 37.4428 19.7649C37.5559 19.6609 37.6904 19.6059 37.8524 19.6059C38.0145 19.6059 38.1551 19.6579 38.2591 19.7649C38.3599 19.8688 38.4119 20.0033 38.4119 20.1654V24.3842C38.4119 24.5524 38.3599 24.69 38.2529 24.7939C38.1459 24.8979 38.0114 24.9529 37.8433 24.9529H37.8402Z" fill="#3CDBC0"/>
<path d="M1.57001 20.3671C2.16096 20.3671 2.64002 19.8881 2.64002 19.2971C2.64002 18.7062 2.16096 18.2271 1.57001 18.2271C0.979059 18.2271 0.5 18.7062 0.5 19.2971C0.5 19.8881 0.979059 20.3671 1.57001 20.3671Z" fill="#FFD100"/>
<path d="M23.7161 13.4854H34.0738C34.6975 13.4854 35.2019 12.981 35.2019 12.3573V9.43468C35.2019 8.81101 34.6975 8.30658 34.0738 8.30658H6.10991C5.48624 8.30658 4.98181 8.81101 4.98181 9.43468V12.3573C4.98181 12.981 5.48624 13.4854 6.10991 13.4854H16.4706" stroke="#505354" stroke-width="0.611434" stroke-linecap="round" stroke-linejoin="round"/>
<path d="M23.7162 30.416V33.73H19.5676H16.4677V30.3854" stroke="#505354" stroke-width="0.611434" stroke-linecap="round" stroke-linejoin="round"/>
<path d="M16.4677 16.9645V8.30963H23.7162V16.9675" stroke="#505354" stroke-width="0.611434" stroke-linecap="round" stroke-linejoin="round"/>
<path d="M16.4676 8.30966L12.5361 4.79086C11.5272 3.90733 9.94666 4.62271 9.94666 5.96481L10.5092 8.30966" stroke="#505354" stroke-width="0.611434" stroke-linecap="round" stroke-linejoin="round"/>
<path d="M23.7162 8.30966L27.6477 4.79086C28.6566 3.90733 30.2371 4.62271 30.2371 5.96481L29.6746 8.30966" stroke="#505354" stroke-width="0.611434" stroke-linecap="round" stroke-linejoin="round"/>
<path d="M23.7161 8.34331C23.7161 6.86059 22.0927 5.65912 20.0903 5.65912C18.0878 5.65912 16.4645 6.86059 16.4645 8.34331" stroke="#505354" stroke-width="0.611434" stroke-linecap="round" stroke-linejoin="round"/>
<path d="M6.57153 13.4854V32.6019C6.57153 33.2255 7.07597 33.73 7.69963 33.73H32.481C33.1047 33.73 33.6091 33.2255 33.6091 32.6019V13.4854" stroke="#505354" stroke-width="0.611434" stroke-linecap="round" stroke-linejoin="round"/>
<path d="M19.6562 22.1617C20.2127 25.4328 18.8981 29.5019 18.3203 31.0641C18.2041 31.376 17.8128 31.4677 17.5651 31.2476C15.9265 29.7954 14.4285 29.2482 13.5358 29.0434C13.1475 28.9547 12.9794 28.5084 13.1995 28.1782C14.829 25.7294 16.5807 21.7642 16.5807 21.7642L18.2897 21.2017" stroke="#505354" stroke-width="0.611434" stroke-linecap="round" stroke-linejoin="round"/>
<path d="M20.5733 22.1556C20.0169 25.4267 21.3315 29.5019 21.9093 31.0611C22.0255 31.3729 22.4168 31.4646 22.6644 31.2445C24.3031 29.7924 25.8011 29.2451 26.6968 29.0403C27.0851 28.9517 27.2533 28.5053 27.0331 28.1751C25.4037 25.7294 23.658 21.7765 23.658 21.7765L21.8971 21.1956" stroke="#505354" stroke-width="0.611434" stroke-linecap="round" stroke-linejoin="round"/>
<path d="M20.766 17.0348H19.4178C18.7947 17.0348 18.2897 17.5399 18.2897 18.1629V21.0366C18.2897 21.6597 18.7947 22.1647 19.4178 22.1647H20.766C21.389 22.1647 21.8941 21.6597 21.8941 21.0366V18.1629C21.8941 17.5399 21.389 17.0348 20.766 17.0348Z" stroke="#505354" stroke-width="0.611434" stroke-linecap="round" stroke-linejoin="round"/>
<path d="M16.5807 21.7612L13.0711 22.9168C11.9766 23.2775 10.8516 22.4613 10.8516 21.3118V17.0929C10.8516 15.8731 12.105 15.0538 13.2239 15.5429L18.3508 17.796" stroke="#505354" stroke-width="0.611434" stroke-linecap="round" stroke-linejoin="round"/>
<path d="M23.655 21.7765L27.1096 22.9168C28.204 23.2775 29.3291 22.4613 29.3291 21.3118V17.0929C29.3291 15.8731 28.0756 15.0538 26.9567 15.5429L21.8298 17.793" stroke="#505354" stroke-width="0.611434" stroke-linecap="round" stroke-linejoin="round"/>
</g>
<defs>
<clipPath id="clip0_200_92">
<rect width="40" height="40" fill="white" transform="translate(0.5)"/>
</clipPath>
</defs>
</svg>
