<svg width="41" height="40" viewBox="0 0 41 40" fill="none" xmlns="http://www.w3.org/2000/svg">
<g clip-path="url(#clip0_200_44)">
<path opacity="0.1" d="M20.018 40.018C30.7975 40.018 39.536 31.2795 39.536 20.5C39.536 9.7205 30.7975 0.981995 20.018 0.981995C9.2385 0.981995 0.5 9.7205 0.5 20.5C0.5 31.2795 9.2385 40.018 20.018 40.018Z" fill="#3CDBC0"/>
<path d="M35.1775 15.595C35.0213 15.595 34.8924 15.5441 34.7871 15.4389C34.6819 15.3336 34.631 15.1979 34.631 15.0349C34.631 14.872 34.6819 14.7532 34.7871 14.6547C34.8924 14.5563 35.0213 14.5088 35.1775 14.5088H39.9535C40.1096 14.5088 40.2386 14.5597 40.3438 14.6615C40.449 14.7634 40.5 14.8958 40.5 15.0587C40.5 15.208 40.449 15.3336 40.3438 15.4389C40.2386 15.5441 40.1096 15.595 39.9535 15.595H35.1775ZM37.5468 17.9541C37.3669 17.9541 37.2175 17.8964 37.0987 17.7776C36.9799 17.6588 36.9188 17.5095 36.9188 17.3228V12.6385C36.9188 12.4585 36.9799 12.3126 37.1055 12.1938C37.2311 12.0784 37.3805 12.0173 37.5604 12.0173C37.7403 12.0173 37.8964 12.075 38.0118 12.1938C38.1239 12.3092 38.1816 12.4585 38.1816 12.6385V17.3228C38.1816 17.5095 38.1239 17.6622 38.005 17.7776C37.8862 17.893 37.7369 17.9541 37.5502 17.9541H37.5468Z" fill="#3CDBC0"/>
<path d="M6.77973 23.7247C7.43587 23.7247 7.96778 23.1928 7.96778 22.5366C7.96778 21.8805 7.43587 21.3486 6.77973 21.3486C6.12358 21.3486 5.59167 21.8805 5.59167 22.5366C5.59167 23.1928 6.12358 23.7247 6.77973 23.7247Z" fill="#FFD100"/>
<path d="M24.037 25.4253H24.7125C29.7736 25.4253 33.8775 30.0791 33.8775 34.9603V37.6928" stroke="#505354" stroke-width="0.678887" stroke-linecap="round" stroke-linejoin="round"/>
<path d="M8.83673 37.6894V34.9569C8.83673 30.0757 12.9372 25.4219 18.0085 25.4219H19.0777" stroke="#505354" stroke-width="0.678887" stroke-linecap="round" stroke-linejoin="round"/>
<path d="M15.0214 37.6928C15.775 37.6928 16.386 37.1031 16.386 36.3758C16.386 35.6484 15.775 35.0587 15.0214 35.0587C14.2678 35.0587 13.6569 35.6484 13.6569 36.3758C13.6569 37.1031 14.2678 37.6928 15.0214 37.6928Z" stroke="#505354" stroke-width="0.678887" stroke-linecap="round" stroke-linejoin="round"/>
<path d="M27.1599 25.7953C27.1599 25.7953 28.1409 28.925 27.9474 31.9358" stroke="#505354" stroke-width="0.678887" stroke-linecap="round" stroke-linejoin="round"/>
<path d="M29.5055 37.6894H30.8666V34.7498C30.8666 33.1952 29.5598 31.9359 27.9474 31.9359C26.3351 31.9359 25.0282 33.1952 25.0282 34.7498V37.6894H26.5217" stroke="#505354" stroke-width="0.678887" stroke-linecap="round" stroke-linejoin="round"/>
<path d="M16.3859 25.5848C16.3859 25.5848 13.0085 29.4375 15.0214 35.0587" stroke="#505354" stroke-width="0.678887" stroke-linecap="round" stroke-linejoin="round"/>
<path d="M27.7268 17.3465C28.3887 17.3941 28.925 17.8625 28.925 18.504C28.925 19.1456 28.3887 19.6615 27.7268 19.6615V19.9738C27.7268 23.2596 24.9637 25.9243 21.5557 25.9243C18.1477 25.9243 15.3846 23.2596 15.3846 19.9738V19.6615C14.7227 19.6615 14.1864 19.1456 14.1864 18.504C14.1864 17.8625 14.7227 17.3465 15.3846 17.3465C15.3846 17.3465 19.8178 16.3655 20.3778 13.3649C20.3778 13.3649 23.7044 17.058 27.7302 17.3465H27.7268Z" stroke="#505354" stroke-width="0.678887" stroke-linecap="round" stroke-linejoin="round"/>
<path d="M23.908 19.9026C24.4386 19.9026 24.8686 19.4877 24.8686 18.9759C24.8686 18.4641 24.4386 18.0492 23.908 18.0492C23.3775 18.0492 22.9474 18.4641 22.9474 18.9759C22.9474 19.4877 23.3775 19.9026 23.908 19.9026Z" fill="#505354"/>
<path d="M18.9148 19.9026C19.4454 19.9026 19.8755 19.4877 19.8755 18.9759C19.8755 18.4641 19.4454 18.0492 18.9148 18.0492C18.3843 18.0492 17.9542 18.4641 17.9542 18.9759C17.9542 19.4877 18.3843 19.9026 18.9148 19.9026Z" fill="#505354"/>
<path d="M19.7974 22.5502C20.2115 22.9474 20.7817 23.1952 21.4097 23.1952C22.0377 23.1952 22.6113 22.9474 23.0221 22.5502" stroke="#505354" stroke-width="0.678887" stroke-linecap="round" stroke-linejoin="round"/>
<path d="M25.8055 24.2814L30.853 23.6907C30.853 23.6907 32.4619 15.4355 26.5794 11.0397H16.3859C10.5033 15.4355 12.1123 23.6907 12.1123 23.6907L17.299 24.2814" stroke="#505354" stroke-width="0.678887" stroke-linecap="round" stroke-linejoin="round"/>
<path d="M21.4844 5.38794V7.9134" stroke="#505354" stroke-width="0.678887" stroke-linecap="round" stroke-linejoin="round"/>
<path d="M22.7947 6.6507H20.1742" stroke="#505354" stroke-width="0.678887" stroke-linecap="round" stroke-linejoin="round"/>
<path d="M26.6677 11.0397L28.219 4.59707C28.219 4.59707 21.5218 0.191091 14.8347 4.59707L16.386 11.0397" stroke="#505354" stroke-width="0.678887" stroke-linecap="round" stroke-linejoin="round"/>
<path d="M25.629 25.4762C25.6155 27.9847 23.589 30.5237 21.5998 30.5237C19.5903 30.5237 17.6046 28.0017 17.6216 25.4694" stroke="#505354" stroke-width="0.678887" stroke-linecap="round" stroke-linejoin="round"/>
</g>
<defs>
<clipPath id="clip0_200_44">
<rect width="40" height="40" fill="white" transform="translate(0.5)"/>
</clipPath>
</defs>
</svg>
