<svg width="41" height="40" viewBox="0 0 41 40" fill="none" xmlns="http://www.w3.org/2000/svg">
<g clip-path="url(#clip0_200_211)">
<path opacity="0.1" d="M20.2451 38.7002C30.3796 38.7002 38.5952 30.4846 38.5952 20.3501C38.5952 10.2156 30.3796 2 20.2451 2C10.1106 2 1.89502 10.2156 1.89502 20.3501C1.89502 30.4846 10.1106 38.7002 20.2451 38.7002Z" fill="#3CDBC0"/>
<path d="M17.2612 7.12207C17.1144 7.12207 16.9932 7.0742 16.8942 6.97527C16.7953 6.87634 16.7474 6.74869 16.7474 6.59551C16.7474 6.44232 16.7953 6.33063 16.8942 6.23808C16.9932 6.14553 17.1144 6.10085 17.2612 6.10085H21.7514C21.8982 6.10085 22.0195 6.14872 22.1184 6.24446C22.2173 6.3402 22.2652 6.46466 22.2652 6.61785C22.2652 6.75826 22.2173 6.87634 22.1184 6.97527C22.0195 7.0742 21.8982 7.12207 21.7514 7.12207H17.2612ZM19.492 9.34004C19.3228 9.34004 19.1824 9.28579 19.0707 9.17409C18.959 9.0624 18.9016 8.92198 18.9016 8.74646V4.34243C18.9016 4.17329 18.959 4.03607 19.0771 3.92437C19.1952 3.81587 19.3356 3.75842 19.5047 3.75842C19.6739 3.75842 19.8207 3.81268 19.9292 3.92437C20.0345 4.03288 20.0887 4.17329 20.0887 4.34243V8.74646C20.0887 8.92198 20.0345 9.06559 19.9228 9.17409C19.8111 9.2826 19.6707 9.34004 19.4952 9.34004H19.492Z" fill="#3CDBC0"/>
<path d="M17.0537 36.1471C17.6706 36.1471 18.1707 35.6471 18.1707 35.0302C18.1707 34.4133 17.6706 33.9132 17.0537 33.9132C16.4368 33.9132 15.9368 34.4133 15.9368 35.0302C15.9368 35.6471 16.4368 36.1471 17.0537 36.1471Z" fill="#FFD100"/>
<path d="M29.1457 26.1902C31.5391 25.0445 34.1592 24.451 36.8112 24.451H40.21L31.3604 28.7497C29.902 29.4581 28.3 29.8251 26.6756 29.8251H4.7544C2.24283 29.8251 0.209961 27.7891 0.209961 25.2807C0.209961 22.7723 2.24602 20.7363 4.7544 20.7363H27.8787C28.6382 20.7363 29.3627 20.4363 29.8988 19.9001L32.8476 16.9514C33.3837 16.4152 34.1114 16.1152 34.8677 16.1152H38.0718L34.389 24.4542" stroke="#505354" stroke-width="0.638264" stroke-linecap="round" stroke-linejoin="round"/>
<path d="M20.5387 29.8252L24.6842 25.6796H18.3941L11.6285 29.8252" stroke="#505354" stroke-width="0.638264" stroke-linecap="round" stroke-linejoin="round"/>
<path d="M0.848203 22.9702H3.73315C4.74161 22.9702 5.39582 24.0329 4.94265 24.9328C4.71288 25.3892 4.24376 25.6796 3.73315 25.6796H0.216309" stroke="#505354" stroke-width="0.638264" stroke-linecap="round" stroke-linejoin="round"/>
<path d="M8.52332 23.5095H11.0987" stroke="#505354" stroke-width="0.638264" stroke-linecap="round" stroke-linejoin="round"/>
<path d="M14.4241 23.5095H17.0027" stroke="#505354" stroke-width="0.638264" stroke-linecap="round" stroke-linejoin="round"/>
<path d="M20.2993 23.5095H22.8747" stroke="#505354" stroke-width="0.638264" stroke-linecap="round" stroke-linejoin="round"/>
<path d="M26.3405 23.5095H28.9158" stroke="#505354" stroke-width="0.638264" stroke-linecap="round" stroke-linejoin="round"/>
<path d="M4.50232 12.5186C4.50232 14.1685 5.8395 15.5057 7.48941 15.5057H15.9368C17.2293 15.5057 18.2793 14.4557 18.2793 13.1632C18.2793 11.8708 17.2293 10.8112 15.9368 10.8112C15.5379 10.8112 15.1581 10.9102 14.8231 11.0889C14.5933 9.67513 13.3646 8.60284 11.887 8.60284C10.7637 8.60284 9.79354 9.21877 9.27974 10.1315C8.7787 9.75172 8.1564 9.53152 7.4926 9.53152C5.84269 9.53152 4.50551 10.8751 4.50551 12.5186H4.50232Z" stroke="#505354" stroke-width="0.638264" stroke-linecap="round" stroke-linejoin="round"/>
<path d="M23.6119 11.0378C23.6119 12.3239 24.6523 13.3611 25.9384 13.3611H32.5125C33.5178 13.3611 34.338 12.5441 34.338 11.5357C34.338 10.5272 33.521 9.70704 32.5125 9.70704C32.1998 9.70704 31.9062 9.78363 31.6445 9.92405C31.4658 8.82305 30.5084 7.99011 29.3595 7.99011C28.4851 7.99011 27.7287 8.46881 27.3298 9.18047C26.9405 8.88687 26.4554 8.71454 25.9384 8.71454C24.6523 8.71454 23.6119 9.76129 23.6119 11.0378Z" stroke="#505354" stroke-width="0.638264" stroke-linecap="round" stroke-linejoin="round"/>
</g>
<defs>
<clipPath id="clip0_200_211">
<rect width="40" height="40" fill="white" transform="translate(0.5)"/>
</clipPath>
</defs>
</svg>
